<?xml version="1.0" encoding="UTF-8"?>
<!DOCTYPE svg PUBLIC "-//W3C//DTD SVG 1.1//EN" "http://www.w3.org/Graphics/SVG/1.1/DTD/svg11.dtd">
<!-- Creator: CorelDRAW 2019 (64 Bit) -->
<svg xmlns="http://www.w3.org/2000/svg" xml:space="preserve" width="58.1794mm" height="31.595mm" version="1.1" style="shape-rendering:geometricPrecision; text-rendering:geometricPrecision; image-rendering:optimizeQuality; fill-rule:evenodd; clip-rule:evenodd"
viewBox="0 0 5817.94 3159.5"
 xmlns:xlink="http://www.w3.org/1999/xlink">
 <defs>
  <style type="text/css">
   <![CDATA[
    .fil2 {fill:#ED3237}
    .fil1 {fill:#284B8C}
    .fil0 {fill:#ED3237;fill-rule:nonzero}
    .fil3 {fill:#284B8C;fill-rule:nonzero}
   ]]>
  </style>
 </defs>
 <g id="Camada_x0020_1">
  <metadata id="CorelCorpID_0Corel-Layer"/>
  <g id="_2126790417104">
   <path class="fil0" d="M3000.45 2376.28c-244.34,0 -433.78,-72.47 -568.33,-217.39 -134.58,-144.95 -201.83,-336.77 -201.83,-575.57 0,-73.41 10.2,-146.91 30.53,-220.35 20.38,-73.48 52.3,-144.56 95.85,-213.21 43.49,-68.68 96.19,-129.34 158.08,-182.08 61.89,-52.7 138.15,-94.83 228.79,-126.34 90.62,-31.56 189.42,-47.32 296.45,-47.32 119.77,0 232.57,22.54 338.38,67.69 105.8,45.07 190.63,113.95 254.52,206.57 15.17,23.2 22.75,44.32 22.75,63.53 0,32.73 -17.96,62.27 -53.89,88.59l-120.98 86.24c-20.76,16.02 -42.73,23.96 -65.88,23.96 -26.35,0 -55.1,-15.54 -86.24,-46.7 -73.48,-73.47 -168.89,-110.2 -286.26,-110.2 -122.17,0 -214.03,38.34 -275.5,114.98 -61.5,76.67 -92.22,179.67 -92.22,309.06 0,126.17 31.72,225.17 95.23,296.99 63.48,71.89 154.31,107.85 272.49,107.85 79.04,0 145.1,-18.39 198.21,-55.08 53.1,-36.74 87.65,-83.88 103.63,-141.36l-184.47 0c-35.15,0 -62.29,-9.59 -81.45,-28.78 -19.17,-19.15 -28.73,-46.27 -28.73,-81.42l0 -87.42c0,-35.17 9.56,-62.5 28.73,-82.07 19.16,-19.57 46.3,-29.36 81.45,-29.36l486.31 0c35.12,0 62.27,8.4 81.44,25.19 19.16,16.77 28.75,41.11 28.75,73.06l0 32.32c0,229.19 -65.9,411.27 -197.64,546.18 -131.77,134.95 -317.82,202.44 -558.17,202.44z"/>
   <path class="fil0" d="M4119.18 2348.73c-35.14,0 -62.5,-9.59 -82.04,-28.78 -19.59,-19.13 -29.35,-46.27 -29.35,-81.42l0 -1310.35c0,-35.12 9.76,-62.3 29.35,-81.49 19.54,-19.12 46.9,-28.74 82.04,-28.74l953.44 0c35.13,0 62.25,9.62 81.44,28.74 19.16,19.19 28.74,46.37 28.74,81.49l0 159.28c0,35.17 -9.58,62.3 -28.74,81.45 -19.19,19.16 -46.31,28.75 -81.44,28.75l-637.25 0 0 194.04 543.82 0c35.13,0 62.46,9.6 82.05,28.72 19.55,19.2 29.31,46.31 29.31,81.48l0 137.75c0,35.13 -9.76,62.29 -29.31,81.42 -19.59,19.21 -46.92,28.78 -82.05,28.78l-543.82 0 0 219.19 660.01 0c35.12,0 62.27,9.59 81.43,28.73 19.17,19.17 28.74,46.32 28.74,81.47l0 159.29c0,35.15 -9.57,62.29 -28.74,81.42 -19.16,19.19 -46.31,28.78 -81.43,28.78l-976.2 0z"/>
   <path class="fil0" d="M1296.01 2376.28c-244.34,0 -433.78,-72.47 -568.33,-217.39 -134.58,-144.95 -201.83,-336.77 -201.83,-575.57 0,-73.41 10.19,-146.91 30.55,-220.35 20.35,-73.48 52.3,-144.56 95.83,-213.21 43.49,-68.68 96.21,-129.34 158.08,-182.08 61.89,-52.7 138.15,-94.83 228.8,-126.34 90.61,-31.56 189.43,-47.32 296.44,-47.32 119.79,0 232.57,22.54 338.38,67.69 105.8,45.07 190.63,113.95 254.51,206.57 15.18,23.2 22.76,44.32 22.76,63.53 0,32.73 -17.96,62.27 -53.89,88.59l-120.99 86.24c-20.75,16.02 -42.72,23.96 -65.88,23.96 -26.34,0 -55.1,-15.54 -86.23,-46.7 -73.49,-73.47 -168.87,-110.2 -286.26,-110.2 -122.17,0 -214.01,38.34 -275.5,114.98 -61.51,76.67 -92.22,179.67 -92.22,309.06 0,126.17 31.74,225.17 95.22,296.99 63.49,71.89 154.32,107.85 272.5,107.85 79.04,0 145.1,-18.39 198.22,-55.08 53.09,-36.74 87.66,-83.88 103.62,-141.36l-184.45 0c-35.16,0 -62.31,-9.59 -81.48,-28.78 -19.15,-19.15 -28.72,-46.27 -28.72,-81.42l0 -87.42c0,-35.17 9.57,-62.5 28.72,-82.07 19.17,-19.57 46.32,-29.36 81.48,-29.36l486.28 0c35.13,0 62.3,8.4 81.44,25.19 19.17,16.77 28.76,41.11 28.76,73.06l0 32.32c0,229.19 -65.9,411.27 -197.64,546.18 -131.75,134.95 -317.82,202.44 -558.17,202.44z"/>
   <path class="fil1" d="M5811.95 584.7c-56.06,-536.72 -1389.78,-738.4 -2968.96,-448.93 -588.7,107.89 -1108.7,277.32 -1536.36,471.59 -29.48,13.38 -20.15,59.31 12,59.31l161.46 0c0,0 26.37,1.16 53.86,-9.64 313.86,-107.44 661.07,-198.77 1028.1,-266.06 1475.3,-270.42 2724.28,-53.21 2780.33,483.52 5.14,49.05 6.55,95.29 1.45,140.37 -11.51,101.97 101.55,168.16 178.9,104.65 216.79,-177.91 308.27,-352.52 289.22,-534.81z"/>
   <path class="fil2" d="M-1.11 2581.83c56.04,536.72 1389.78,738.4 2968.96,448.94 588.7,-107.9 1108.7,-277.33 1536.36,-471.59 29.46,-13.38 20.15,-59.32 -12.01,-59.32l-161.47 0c0,0 -26.35,-1.16 -53.85,9.62 -313.85,107.46 -661.06,198.79 -1028.09,266.07 -1475.3,270.41 -2724.28,53.22 -2780.35,-483.5 -5.12,-49.06 -6.53,-95.29 -1.43,-140.4 11.51,-101.95 -101.55,-168.14 -178.92,-104.63 -216.77,177.91 -308.25,352.52 -289.2,534.81z"/>
   <path class="fil3" d="M3134.25 676.95c-34.57,0 -61.7,-10.52 -81.33,-31.56 -19.67,-21.06 -29.5,-48.92 -29.5,-83.6 0,-11.71 1.39,-23.07 4.19,-34.1 2.78,-11 7.18,-21.42 13.2,-31.22 6.05,-9.79 13.34,-18.35 21.93,-25.65 8.58,-7.32 19.05,-13.08 31.4,-17.31 12.35,-4.24 25.96,-6.35 40.79,-6.35 16.59,0 31.74,3.04 45.49,9.13 13.76,6.08 25.06,15.39 34.02,27.93 1.62,2.54 2.43,5.14 2.43,7.82 0,3.95 -2.03,7.48 -6.08,10.62l-13.41 10.26c-2.56,2.2 -5.22,3.31 -7.99,3.31 -3.03,0 -6.44,-1.92 -10.26,-5.75 -10.91,-11.83 -25.64,-17.76 -44.2,-17.76 -10.1,0 -19.07,1.84 -26.97,5.49 -7.88,3.64 -14.29,8.64 -19.22,14.97 -4.92,6.33 -8.67,13.59 -11.21,21.83 -2.54,8.24 -3.83,17.17 -3.83,26.78 0,20.2 5.42,36.8 16.27,49.84 10.84,13.04 25.59,19.57 44.28,19.57 19,0 34.31,-6.27 45.9,-18.78 3.37,-3.84 6.97,-5.75 10.78,-5.75 2.22,0 4.96,1.11 8.18,3.31l13.23 10.28c3.93,2.76 5.92,6.18 5.92,10.26 0,2.88 -1.05,5.72 -3.12,8.52 -17.88,25.27 -44.84,37.91 -80.89,37.91z"/>
   <path class="fil3" d="M3329.7 612.24c11.3,12.63 26.17,18.96 44.61,18.96 18.44,0 33.4,-6.35 44.87,-19.04 11.5,-12.7 17.23,-29.49 17.23,-50.37 0,-20.88 -5.65,-37.61 -16.95,-50.18 -11.31,-12.58 -26.14,-18.89 -44.46,-18.89 -18.54,0 -33.57,6.31 -45.04,18.89 -11.49,12.57 -17.24,29.3 -17.24,50.18 0,21 5.67,37.81 16.98,50.45zm44.96 64.71c-17.03,0 -32.65,-2.93 -46.8,-8.79 -14.15,-5.84 -25.98,-13.95 -35.49,-24.26 -9.49,-10.32 -16.85,-22.51 -22.07,-36.62 -5.24,-14.09 -7.84,-29.37 -7.84,-45.83 0,-21.22 4.68,-40.53 14.09,-57.94 9.39,-17.4 22.68,-31.12 39.84,-41.22 17.15,-10.09 36.58,-15.13 58.27,-15.13 22.51,0 42.28,4.96 59.33,14.87 17.05,9.92 30.05,23.5 39.04,40.79 9,17.27 13.48,36.82 13.48,58.63 0,21.56 -4.68,41.13 -14.01,58.7 -9.33,17.58 -22.55,31.45 -39.64,41.58 -17.11,10.14 -36.52,15.22 -58.2,15.22z"/>
   <path class="fil3" d="M3559.25 672.95c-4.17,0 -7.41,-1.16 -9.73,-3.48 -2.34,-2.32 -3.49,-5.57 -3.49,-9.74l0 -195.87c0,-8.83 4.42,-13.22 13.22,-13.22l22.8 0c8.69,0 13.04,4.39 13.04,13.22l0 162.82 97.4 0c8.7,0 13.06,4.41 13.06,13.22l0 19.83c0,8.81 -4.36,13.22 -13.06,13.22l-133.24 0z"/>
   <path class="fil3" d="M3822.12 428.89c-3.25,0.94 -5.4,1.4 -6.43,1.4 -5.22,0 -8.89,-2.72 -10.97,-8.18l-2.62 -4.52c-0.92,-2.19 -1.39,-4.47 -1.39,-6.79 0,-4.76 2.73,-8.34 8.19,-10.78l58.44 -26.62c2.44,-1.06 4.72,-1.58 6.79,-1.58 4.86,0 8.4,2.62 10.6,7.84l4.01 8.35c0.93,2.22 1.39,4.47 1.39,6.79 0,4.75 -2.86,8.18 -8.52,10.26l-59.49 23.83zm-54.12 244.07c-4.05,0 -7.27,-1.19 -9.63,-3.57 -2.38,-2.38 -3.58,-5.6 -3.58,-9.65l0 -195.88c0,-4.19 1.16,-7.41 3.48,-9.75 2.32,-2.32 5.56,-3.47 9.73,-3.47l135.69 0c4.18,0 7.43,1.15 9.74,3.47 2.32,2.34 3.49,5.56 3.49,9.75l0 17.74c0,4.17 -1.17,7.42 -3.49,9.75 -2.31,2.32 -5.56,3.47 -9.74,3.47l-100.2 0 0 44.18 86.64 0c8.83,0 13.22,4.41 13.22,13.23l0 15.65c0,8.8 -4.39,13.21 -13.22,13.21l-86.64 0 0 47.67 103.33 0c4.17,0 7.41,1.17 9.76,3.49 2.31,2.31 3.46,5.56 3.46,9.73l0 17.76c0,8.8 -4.39,13.22 -13.22,13.22l-138.82 0z"/>
   <path class="fil3" d="M4073.5 676.95c-35.02,0 -62.25,-10.54 -81.68,-31.66 -19.43,-21.1 -29.12,-49.06 -29.12,-83.84 0,-11.83 1.59,-23.28 4.77,-34.36 3.19,-11.07 8.01,-21.44 14.43,-31.14 6.44,-9.68 14.21,-18.14 23.32,-25.39 9.09,-7.26 19.95,-12.96 32.55,-17.13 12.58,-4.17 26.16,-6.27 40.77,-6.27 17.52,0 33.49,3.12 47.92,9.39 14.45,6.27 26.12,15.72 35.05,28.35 1.85,2.44 2.8,5.04 2.8,7.82 0,3.96 -2.05,7.38 -6.1,10.28l-12.34 9.22c-2.92,2.21 -5.62,3.3 -8.18,3.3 -3.02,0 -6.51,-1.8 -10.44,-5.38 -12.88,-12.88 -29.1,-19.31 -48.71,-19.31 -14.51,0 -26.78,3.21 -36.88,9.65 -10.08,6.43 -17.45,14.96 -22.09,25.56 -4.64,10.62 -6.95,22.87 -6.95,36.8 0,21.22 5.5,38.35 16.52,51.41 11.03,13.04 26.85,19.55 47.49,19.55 14.85,0 27.34,-3.65 37.5,-10.94 10.14,-7.32 16.19,-17.8 18.16,-31.5l-38.43 0c-4.05,0 -7.3,-1.19 -9.68,-3.55 -2.35,-2.4 -3.54,-5.73 -3.54,-10.02l0 -11.65c0,-4.17 1.15,-7.41 3.46,-9.73 2.34,-2.34 5.59,-3.48 9.76,-3.48l72.69 0c4.41,0 7.76,1.04 10.02,3.12 2.28,2.09 3.38,4.94 3.38,8.52l0 5.04c0,33.05 -9.47,59.21 -28.43,78.46 -18.97,19.24 -44.96,28.88 -78.02,28.88z"/>
   <path class="fil3" d="M4251.99 672.95c-4.17,0 -7.41,-1.16 -9.73,-3.48 -2.34,-2.32 -3.47,-5.57 -3.47,-9.74l0 -195.87c0,-4.19 1.13,-7.42 3.47,-9.73 2.32,-2.34 5.56,-3.49 9.73,-3.49l23.48 0c8.83,0 13.22,4.39 13.22,13.22l0 195.87c0,8.81 -4.39,13.22 -13.22,13.22l-23.48 0z"/>
   <path class="fil3" d="M4415.26 612.24c11.33,12.63 26.18,18.96 44.63,18.96 18.44,0 33.39,-6.35 44.88,-19.04 11.48,-12.7 17.23,-29.49 17.23,-50.37 0,-20.88 -5.67,-37.61 -16.97,-50.18 -11.31,-12.58 -26.12,-18.89 -44.44,-18.89 -18.56,0 -33.58,6.31 -45.04,18.89 -11.51,12.57 -17.25,29.3 -17.25,50.18 0,21 5.66,37.81 16.96,50.45zm44.97 64.71c-17.03,0 -32.65,-2.93 -46.8,-8.79 -14.13,-5.84 -25.98,-13.95 -35.49,-24.26 -9.49,-10.32 -16.85,-22.51 -22.07,-36.62 -5.24,-14.09 -7.84,-29.37 -7.84,-45.83 0,-21.22 4.7,-40.53 14.09,-57.94 9.39,-17.4 22.67,-31.12 39.84,-41.22 17.15,-10.09 36.58,-15.13 58.27,-15.13 22.51,0 42.28,4.96 59.33,14.87 17.05,9.92 30.07,23.5 39.04,40.79 9.01,17.27 13.48,36.82 13.48,58.63 0,21.56 -4.66,41.13 -13.99,58.7 -9.35,17.58 -22.55,31.45 -39.66,41.58 -17.11,10.14 -36.5,15.22 -58.2,15.22z"/>
   <path class="fil3" d="M5268.56 2720.64c22.49,0 38.55,-11.57 38.55,-30.84l0 -0.44c0,-18.44 -14.12,-29.58 -38.33,-29.58l-46.29 0 0 60.86 46.07 0zm-63 -76.48l64.49 0c18.42,0 33.21,5.56 42.62,14.99 7.32,7.3 11.59,17.78 11.59,29.57l0 0.44c0,24.83 -17.15,39.42 -40.71,43.7l46.06 61.26 -20.76 0 -43.52 -58.27 -42.84 0 0 58.27 -16.93 0 0 -149.96z"/>
   <path class="fil3" d="M5257.46 2602c-65.84,0 -119.39,53.57 -119.39,119.4 0,65.84 53.55,119.4 119.39,119.4 65.84,0 119.41,-53.56 119.41,-119.4 0,-65.83 -53.57,-119.4 -119.41,-119.4zm0 256.11c-75.38,0 -136.7,-61.35 -136.7,-136.71 0,-75.38 61.32,-136.69 136.7,-136.69 75.37,0 136.7,61.31 136.7,136.69 0,75.36 -61.33,136.71 -136.7,136.71z"/>
  </g>
 </g>
</svg>
